<?xml version="1.0" encoding="UTF-8"?>
<!DOCTYPE svg PUBLIC "-//W3C//DTD SVG 1.1//EN" "http://www.w3.org/Graphics/SVG/1.1/DTD/svg11.dtd">
<!-- Creator: CorelDRAW -->
<svg xmlns="http://www.w3.org/2000/svg" xml:space="preserve" width="210mm" height="297mm" version="1.1" style="shape-rendering:geometricPrecision; text-rendering:geometricPrecision; image-rendering:optimizeQuality; fill-rule:evenodd; clip-rule:evenodd"
viewBox="0 0 21000 29700"
 xmlns:xlink="http://www.w3.org/1999/xlink"
 xmlns:xodm="http://www.corel.com/coreldraw/odm/2003">
 <defs>
  <style type="text/css">
   <![CDATA[
    .fil0 {fill:#FEFEFE}
   ]]>
  </style>
 </defs>
 <g id="Слой_x0020_1">
  <metadata id="CorelCorpID_0Corel-Layer"/>
  <path class="fil0" d="M6936.68 13112.24c-803.11,-93.35 -1960.12,-1461.46 -2323.58,-1668.71 -344.01,844.3 -1255.2,1574.64 -2022.32,3832.67 -535.5,1576.36 -653.57,3530.95 -46.2,5106.57 559.24,1450.79 1587.55,2596.26 2628.74,3307.12 1075.72,734.43 2687.1,1557.21 4326.94,1642.11 -818.42,-500.48 -1714.14,-563.79 -2487.04,-2193.51 -277.45,-585.03 -395.19,-1231.05 -419.78,-1933.62l313.36 -2170.72c365.57,718.63 1152,1206.43 1242.95,281.1 67.08,-682.48 18.21,-813.91 233.14,-1605.21 430.21,-1584.01 1629.07,-3386.03 3319.24,-3904.47 -386.51,1273.03 -380.37,1589.44 297.65,2627.15 635.98,973.39 666.02,1175.64 943.38,2498.06 973.23,-542.5 498.6,-323.21 1003.24,-736.29 111.79,-91.5 42.37,-44.25 164.31,-116.28 1301.21,1375.26 2104.94,4245.88 248.26,6040.79 -579.27,560.02 -1000,696.98 -1795.23,1114.51 1126.11,-49.36 2561.62,-801.12 3285.33,-1345.34 806.81,-606.68 1563.16,-1440.39 2107.12,-2537.01 546.43,-1101.57 842.61,-2369.33 906.77,-3757.72 42.62,-921.99 -106.17,-3534.67 -451.23,-4272.45 -159,103.5 -1596.62,2226.78 -2337.26,1275.82 -191.03,-245.3 -125.81,-840.34 -154.58,-1223.96 -117.19,-1561.93 -508.32,-3233.92 -1109.54,-4481.71 -1108.92,-2301.41 -3168.86,-4686.47 -5593.79,-5460.77 39.77,307.47 260.29,764.87 358,1144.59 128.05,497.55 181.63,958.56 126.55,1477.19 -232.26,2187.95 -2515.75,3200.66 -2764.43,7060.09z"/>
 </g>
</svg>
